<svg xmlns="http://www.w3.org/2000/svg" xmlns:xlink="http://www.w3.org/1999/xlink" version="1.1" width="1000" height="1000" viewBox="0 0 1000 1000" xml:space="preserve">
<desc>Created with Fabric.js 3.5.0</desc>
<defs>
</defs>
<g transform="matrix(0 28.4091 -28.4091 0 499.9999 500.0001)" id="738917">
<g style="" vector-effect="non-scaling-stroke">
		<g transform="matrix(1 0 0 1 7 0)" id="icon">
<polygon style="stroke: none; stroke-width: 1; stroke-dasharray: none; stroke-linecap: butt; stroke-dashoffset: 0; stroke-linejoin: miter; stroke-miterlimit: 4; is-custom-font: none; font-file-url: none; fill: rgb(0,0,0); fill-rule: nonzero; opacity: 1;" points="4.6,4.6 1,8.2 1,-12 -1,-12 -1,8.2 -4.6,4.6 -6,6 0,12 6,6 "/>
</g>
		<g transform="matrix(1 0 0 1 -7 0)" id="icon">
<polygon style="stroke: none; stroke-width: 1; stroke-dasharray: none; stroke-linecap: butt; stroke-dashoffset: 0; stroke-linejoin: miter; stroke-miterlimit: 4; is-custom-font: none; font-file-url: none; fill: rgb(0,0,0); fill-rule: nonzero; opacity: 1;" points="0,-12 -6,-6 -4.6,-4.6 -1,-8.2 -1,12 1,12 1,-8.2 4.6,-4.6 6,-6 "/>
</g>
		<g transform="matrix(1 0 0 1 0 0)" id="_Transparent_Rectangle_">
<!-- <rect style="stroke: none; stroke-width: 1; stroke-dasharray: none; stroke-linecap: butt; stroke-dashoffset: 0; stroke-linejoin: miter; stroke-miterlimit: 4; is-custom-font: none; font-file-url: none; fill: none; fill-rule: nonzero; opacity: 1;" x="-16" y="-16" rx="0" ry="0" width="32" height="32"/> -->
</g>
</g>
</g>
</svg>